<svg width="95" height="15" viewBox="0 0 95 15" fill="none" xmlns="http://www.w3.org/2000/svg">
<path d="M5.37599 4.096C5.41865 3.88267 5.43999 3.664 5.43999 3.44C5.43999 2.40533 4.93332 1.888 3.91999 1.888C3.46132 1.888 3.07199 1.984 2.75199 2.176C2.45332 2.528 2.30399 2.94933 2.30399 3.44C2.30399 3.76 2.44265 4.03733 2.71999 4.272C2.99732 4.496 3.33865 4.672 3.74399 4.8C4.15999 4.928 4.60799 5.088 5.08799 5.28C5.56799 5.472 6.01065 5.68 6.41599 5.904C6.83199 6.11733 7.17865 6.44267 7.45599 6.88C7.73332 7.30667 7.87199 7.81333 7.87199 8.4C7.87199 9.52 7.43999 10.432 6.57599 11.136C5.72265 11.84 4.69332 12.192 3.48799 12.192C2.51732 12.192 1.69065 11.952 1.00799 11.472C0.335985 10.9813 -1.46031e-05 10.2987 -1.46031e-05 9.424C-1.46031e-05 8.976 0.133319 8.60267 0.399985 8.304C0.677319 7.99467 1.00265 7.84 1.37599 7.84C1.75999 7.84 2.04265 7.888 2.22399 7.984C2.13865 8.304 2.09599 8.592 2.09599 8.848C2.09599 9.424 2.25599 9.88267 2.57599 10.224C2.90665 10.5547 3.35999 10.72 3.93599 10.72C4.51199 10.72 4.97599 10.5707 5.32799 10.272C5.67999 9.97333 5.85599 9.57867 5.85599 9.088C5.85599 8.58667 5.65865 8.176 5.26399 7.856C4.87999 7.536 4.41065 7.28 3.85599 7.088C3.30132 6.896 2.74665 6.69333 2.19199 6.48C1.63732 6.26667 1.16265 5.952 0.767985 5.536C0.383985 5.10933 0.191985 4.576 0.191985 3.936C0.191985 2.93333 0.623985 2.10133 1.48799 1.44C2.36265 0.778666 3.34932 0.447999 4.44799 0.447999C5.25865 0.447999 5.95732 0.613332 6.54399 0.943999C7.14132 1.264 7.43999 1.75467 7.43999 2.416C7.43999 2.896 7.28532 3.30667 6.97599 3.648C6.66665 3.97867 6.27732 4.144 5.80799 4.144C5.67999 4.144 5.53599 4.128 5.37599 4.096ZM12.0884 12.192C10.915 12.192 10.051 11.8507 9.49636 11.168C8.94169 10.4747 8.66436 9.51467 8.66436 8.288C8.66436 7.05067 9.03236 5.97867 9.76836 5.072C10.5044 4.16533 11.4484 3.712 12.6004 3.712C14.9684 3.712 16.1524 5.04533 16.1524 7.712C16.1524 8.96 15.7684 10.0213 15.0004 10.896C14.2324 11.76 13.2617 12.192 12.0884 12.192ZM10.9364 5.472C10.7444 6.09067 10.6484 6.70933 10.6484 7.328C10.6484 7.94667 10.6697 8.42667 10.7124 8.768C10.755 9.10933 10.835 9.45067 10.9524 9.792C11.1977 10.4853 11.6777 10.832 12.3924 10.832C13.1177 10.832 13.5924 10.64 13.8164 10.256C14.051 9.872 14.1684 9.28 14.1684 8.48C14.1684 6.208 13.6297 5.072 12.5524 5.072C11.9337 5.072 11.395 5.20533 10.9364 5.472ZM17.5867 10.368L17.7467 7.04C17.7467 6.00533 17.5974 5.024 17.2987 4.096C17.5974 3.968 17.9654 3.904 18.4027 3.904C19.2561 3.904 19.6827 4.37867 19.6827 5.328C19.6827 5.86133 19.6241 6.61333 19.5067 7.584C19.3894 8.544 19.3307 9.24267 19.3307 9.68C19.3307 10.2133 19.5707 10.48 20.0507 10.48C20.3387 10.48 20.6747 10.24 21.0587 9.76C21.4534 9.26933 21.7894 8.72533 22.0667 8.128C22.3547 7.52 22.5254 7.024 22.5787 6.64C22.5147 5.46667 22.4241 4.61867 22.3067 4.096C22.6481 3.968 22.9947 3.904 23.3467 3.904C23.7094 3.904 24.0081 4.016 24.2427 4.24C24.4881 4.464 24.6107 4.74133 24.6107 5.072C24.6107 5.40267 24.5627 5.952 24.4667 6.72C24.3707 7.488 24.3227 8.29333 24.3227 9.136C24.3227 9.968 24.4187 10.8587 24.6107 11.808C24.1947 11.936 23.8214 12 23.4907 12C22.8294 12 22.4987 11.5627 22.4987 10.688C22.4987 10.304 22.5414 9.77067 22.6267 9.088C22.2001 9.99467 21.6774 10.7253 21.0587 11.28C20.4507 11.824 19.8321 12.096 19.2027 12.096C18.1254 12.096 17.5867 11.52 17.5867 10.368ZM26.4149 0.191999C26.7562 0.0639992 27.1082 -9.53674e-07 27.4709 -9.53674e-07C27.8335 -9.53674e-07 28.1322 0.122666 28.3669 0.367999C28.6122 0.602666 28.7349 0.927999 28.7349 1.344C28.7349 1.74933 28.6762 2.57067 28.5589 3.808C28.4522 5.03467 28.3989 6 28.3989 6.704C28.3989 8.44267 28.5215 10.144 28.7669 11.808C28.4255 11.936 28.0629 12 27.6789 12C26.8575 12 26.4469 11.6 26.4469 10.8C26.4469 10.416 26.5055 9.664 26.6229 8.544C26.7402 7.41333 26.7989 6.50667 26.7989 5.824C26.7989 3.552 26.6709 1.67467 26.4149 0.191999ZM31.3677 9.392C31.3677 9.2 31.3197 7.952 31.2237 5.648C30.7011 5.68 30.2851 5.77067 29.9757 5.92C29.8477 5.68533 29.7837 5.44 29.7837 5.184C29.7837 4.928 29.8744 4.72 30.0557 4.56C30.2371 4.38933 30.4504 4.304 30.6957 4.304C30.9411 4.304 31.1171 4.30933 31.2237 4.32C31.2771 3.11467 31.6877 2.096 32.4557 1.264C33.2237 0.421333 34.1891 -9.53674e-07 35.3517 -9.53674e-07C36.0024 -9.53674e-07 36.5517 0.138666 36.9997 0.415999C37.4477 0.693333 37.6717 1.104 37.6717 1.648C37.6717 2.032 37.5277 2.35733 37.2397 2.624C36.9517 2.89067 36.6104 3.024 36.2157 3.024C36.1304 3.024 36.0237 3.01333 35.8957 2.992C35.9277 2.85333 35.9437 2.73067 35.9437 2.624C35.9437 2.25067 35.8637 1.952 35.7037 1.728C35.5437 1.49333 35.2611 1.376 34.8557 1.376C34.4504 1.376 34.0771 1.49333 33.7357 1.728C33.5224 2.016 33.3517 2.416 33.2237 2.928C33.0957 3.44 33.0317 3.94133 33.0317 4.432H33.3997C34.1037 4.432 34.9411 4.32 35.9117 4.096C36.0397 4.30933 36.1037 4.56533 36.1037 4.864C36.1037 5.152 35.9811 5.392 35.7357 5.584C35.4904 5.776 35.1811 5.872 34.8077 5.872C34.7971 5.872 34.1944 5.79733 32.9997 5.648L33.1597 13.968C33.1597 14.6613 32.7491 15.008 31.9277 15.008C31.6504 15.008 31.2877 14.944 30.8397 14.816C31.1917 13.4187 31.3677 11.6107 31.3677 9.392ZM36.9149 10.368L37.0749 7.04C37.0749 6.00533 36.9255 5.024 36.6269 4.096C36.9255 3.968 37.2935 3.904 37.7309 3.904C38.5842 3.904 39.0109 4.37867 39.0109 5.328C39.0109 5.86133 38.9522 6.61333 38.8349 7.584C38.7175 8.544 38.6589 9.24267 38.6589 9.68C38.6589 10.2133 38.8989 10.48 39.3789 10.48C39.6669 10.48 40.0029 10.24 40.3869 9.76C40.7815 9.26933 41.1175 8.72533 41.3949 8.128C41.6829 7.52 41.8535 7.024 41.9069 6.64C41.8429 5.46667 41.7522 4.61867 41.6349 4.096C41.9762 3.968 42.3229 3.904 42.6749 3.904C43.0375 3.904 43.3362 4.016 43.5709 4.24C43.8162 4.464 43.9389 4.74133 43.9389 5.072C43.9389 5.40267 43.8909 5.952 43.7949 6.72C43.6989 7.488 43.6509 8.29333 43.6509 9.136C43.6509 9.968 43.7469 10.8587 43.9389 11.808C43.5229 11.936 43.1495 12 42.8189 12C42.1575 12 41.8269 11.5627 41.8269 10.688C41.8269 10.304 41.8695 9.77067 41.9549 9.088C41.5282 9.99467 41.0055 10.7253 40.3869 11.28C39.7789 11.824 39.1602 12.096 38.5309 12.096C37.4535 12.096 36.9149 11.52 36.9149 10.368ZM45.743 0.191999C46.0843 0.0639992 46.4363 -9.53674e-07 46.799 -9.53674e-07C47.1617 -9.53674e-07 47.4603 0.122666 47.695 0.367999C47.9403 0.602666 48.063 0.927999 48.063 1.344C48.063 1.74933 48.0043 2.57067 47.887 3.808C47.7803 5.03467 47.727 6 47.727 6.704C47.727 8.44267 47.8497 10.144 48.095 11.808C47.7537 11.936 47.391 12 47.007 12C46.1857 12 45.775 11.6 45.775 10.8C45.775 10.416 45.8337 9.664 45.951 8.544C46.0683 7.41333 46.127 6.50667 46.127 5.824C46.127 3.552 45.999 1.67467 45.743 0.191999ZM66.0115 1.536L65.9315 4.176C65.9315 5.62667 65.9742 6.928 66.0595 8.08C66.1448 9.22133 66.3368 10.464 66.6355 11.808C66.4008 12 66.0275 12.096 65.5155 12.096C64.5235 12.096 64.0275 11.664 64.0275 10.8C64.0275 10.0853 64.0595 8.992 64.1235 7.52C64.1982 6.048 64.2355 4.896 64.2355 4.064C63.6595 4.896 63.0515 5.92533 62.4115 7.152C61.7822 8.368 61.4675 9.11467 61.4675 9.392C61.4675 9.66933 61.4942 9.88267 61.5475 10.032C61.3128 10.1813 60.9982 10.256 60.6035 10.256C60.2195 10.256 59.8942 10.1493 59.6275 9.936C59.3715 9.72267 59.1528 9.42933 58.9715 9.056C58.8008 8.68267 58.4915 7.952 58.0435 6.864C57.6062 5.76533 57.2062 4.82133 56.8435 4.032C56.5662 5.74933 56.4275 7.26933 56.4275 8.592C56.4275 9.91467 56.4702 10.9867 56.5555 11.808C56.2142 11.936 55.8728 12 55.5315 12C54.8488 12 54.5075 11.6587 54.5075 10.976C54.5075 10.4533 54.6248 9.41333 54.8595 7.856C55.1048 6.288 55.2275 4.96533 55.2275 3.888C55.2275 2.81067 55.1688 1.80267 55.0515 0.863999C55.6275 0.714666 56.0755 0.639999 56.3955 0.639999C56.9822 0.639999 57.3768 0.848 57.5795 1.264C57.8995 1.936 58.3688 3.008 58.9875 4.48C59.6168 5.94133 60.1288 7.06667 60.5235 7.856C60.6302 7.632 60.8755 7.152 61.2595 6.416C61.6542 5.66933 61.9795 5.03467 62.2355 4.512C62.5022 3.97867 62.7688 3.34933 63.0355 2.624C63.3128 1.888 63.4888 1.248 63.5635 0.704C63.9475 0.597333 64.3208 0.544 64.6835 0.544C65.0568 0.544 65.3715 0.624 65.6275 0.783999C65.8835 0.943999 66.0115 1.19467 66.0115 1.536ZM68.3524 10.368L68.5124 7.04C68.5124 6.00533 68.363 5.024 68.0644 4.096C68.363 3.968 68.731 3.904 69.1684 3.904C70.0217 3.904 70.4484 4.37867 70.4484 5.328C70.4484 5.86133 70.3897 6.61333 70.2724 7.584C70.155 8.544 70.0964 9.24267 70.0964 9.68C70.0964 10.2133 70.3364 10.48 70.8164 10.48C71.1044 10.48 71.4404 10.24 71.8244 9.76C72.219 9.26933 72.555 8.72533 72.8324 8.128C73.1204 7.52 73.291 7.024 73.3444 6.64C73.2804 5.46667 73.1897 4.61867 73.0724 4.096C73.4137 3.968 73.7604 3.904 74.1124 3.904C74.475 3.904 74.7737 4.016 75.0084 4.24C75.2537 4.464 75.3764 4.74133 75.3764 5.072C75.3764 5.40267 75.3284 5.952 75.2324 6.72C75.1364 7.488 75.0884 8.29333 75.0884 9.136C75.0884 9.968 75.1844 10.8587 75.3764 11.808C74.9604 11.936 74.587 12 74.2564 12C73.595 12 73.2644 11.5627 73.2644 10.688C73.2644 10.304 73.307 9.77067 73.3924 9.088C72.9657 9.99467 72.443 10.7253 71.8244 11.28C71.2164 11.824 70.5977 12.096 69.9684 12.096C68.891 12.096 68.3524 11.52 68.3524 10.368ZM78.4285 9.088C78.3965 9.23733 78.3805 9.36 78.3805 9.456C78.3805 9.89333 78.5085 10.2293 78.7645 10.464C79.0312 10.6987 79.3832 10.816 79.8205 10.816C80.2685 10.816 80.6365 10.736 80.9245 10.576C81.2232 10.4053 81.3725 10.1547 81.3725 9.824C81.3725 9.49333 81.2125 9.232 80.8925 9.04C80.5832 8.83733 80.2045 8.67733 79.7565 8.56C79.3192 8.44267 78.8765 8.31467 78.4285 8.176C77.9805 8.02667 77.5965 7.79733 77.2765 7.488C76.9672 7.17867 76.8125 6.78933 76.8125 6.32C76.8125 5.584 77.2018 4.96533 77.9805 4.464C78.7592 3.96267 79.5752 3.712 80.4285 3.712C81.3672 3.712 82.0818 3.904 82.5725 4.288C82.8605 4.512 83.0045 4.81067 83.0045 5.184C83.0045 5.54667 82.8605 5.84533 82.5725 6.08C82.2952 6.304 81.9538 6.416 81.5485 6.416C81.4632 6.416 81.3565 6.40533 81.2285 6.384C81.2605 6.24533 81.2765 6.12267 81.2765 6.016C81.2765 5.70667 81.1592 5.472 80.9245 5.312C80.6898 5.152 80.3698 5.072 79.9645 5.072C79.5698 5.072 79.2072 5.152 78.8765 5.312C78.7485 5.48267 78.6845 5.70133 78.6845 5.968C78.6845 6.23467 78.8392 6.45333 79.1485 6.624C79.4578 6.784 79.8312 6.928 80.2685 7.056C80.7165 7.17333 81.1645 7.312 81.6125 7.472C82.0605 7.62133 82.4392 7.86133 82.7485 8.192C83.0578 8.512 83.2125 8.91733 83.2125 9.408C83.2125 10.208 82.8125 10.8747 82.0125 11.408C81.2232 11.9307 80.4072 12.192 79.5645 12.192C78.7218 12.192 78.0232 12.0427 77.4685 11.744C76.9245 11.4347 76.6525 10.9707 76.6525 10.352C76.6525 9.968 76.7912 9.65867 77.0685 9.424C77.3565 9.17867 77.7032 9.056 78.1085 9.056C78.1938 9.056 78.3005 9.06667 78.4285 9.088ZM84.3497 4.048C84.6911 3.952 85.0324 3.904 85.3737 3.904C85.7257 3.904 86.0244 4.01067 86.2697 4.224C86.5151 4.43733 86.6377 4.71467 86.6377 5.056C86.6377 5.38667 86.5791 5.968 86.4617 6.8C86.3551 7.62133 86.3017 8.26133 86.3017 8.72C86.3017 9.91467 86.4137 10.944 86.6377 11.808C86.3071 11.936 85.9497 12 85.5657 12C85.1817 12 84.8777 11.9147 84.6537 11.744C84.4297 11.5627 84.3177 11.3067 84.3177 10.976C84.3177 10.6347 84.3817 10.08 84.5097 9.312C84.6377 8.544 84.7017 7.90933 84.7017 7.408C84.7017 6.07467 84.5844 4.95467 84.3497 4.048ZM84.5577 0.431999C84.9311 0.261333 85.2991 0.176 85.6617 0.176C86.0244 0.176 86.2911 0.272 86.4617 0.464C86.6431 0.645333 86.7337 0.917333 86.7337 1.28C86.7337 1.64267 86.6111 1.96267 86.3657 2.24C86.1311 2.51733 85.8217 2.656 85.4377 2.656C84.6484 2.656 84.2537 2.24533 84.2537 1.424C84.2537 1.06133 84.3551 0.730666 84.5577 0.431999ZM91.5479 12.192C90.4065 12.192 89.5319 11.888 88.9239 11.28C88.3159 10.672 88.0119 9.79733 88.0119 8.656C88.0119 7.26933 88.4012 6.10133 89.1799 5.152C89.9585 4.192 90.9932 3.712 92.2839 3.712C93.0199 3.712 93.6172 3.86133 94.0759 4.16C94.5345 4.448 94.7639 4.88 94.7639 5.456C94.7639 5.82933 94.6145 6.16533 94.3159 6.464C94.0172 6.752 93.6812 6.896 93.3079 6.896C93.2225 6.896 93.1159 6.88533 92.9879 6.864C93.0199 6.72533 93.0359 6.60267 93.0359 6.496C93.0359 6.112 92.9345 5.78667 92.7319 5.52C92.5292 5.25333 92.1932 5.12 91.7239 5.12C91.2545 5.12 90.8172 5.312 90.4119 5.696C90.1239 6.44267 89.9799 7.376 89.9799 8.496C89.9799 10.0213 90.5559 10.784 91.7079 10.784C92.3265 10.784 92.7852 10.5867 93.0839 10.192C93.3932 9.78667 93.5479 9.33333 93.5479 8.832C93.9105 8.832 94.2252 8.92267 94.4919 9.104C94.7585 9.28533 94.8919 9.536 94.8919 9.856C94.8919 10.5493 94.5345 11.1147 93.8199 11.552C93.1159 11.9787 92.3585 12.192 91.5479 12.192Z" fill="black"/>
</svg>
